<?xml version="1.0" encoding="UTF-8"?>
<svg version="1.1" xmlns="http://www.w3.org/2000/svg" width="500" height="500">
<path d="M0 0 C1.92733727 -0.02652373 3.8545349 -0.06735673 5.78125 -0.12304688 C23.85343852 -0.63935069 23.85343852 -0.63935069 28.83129883 3.57714844 C30.47607422 5.50390625 30.47607422 5.50390625 31.84692383 7.45996094 C32.32057373 8.02553711 32.79422363 8.59111328 33.28222656 9.17382812 C34.60440956 10.76872177 35.82541987 12.40321833 37.03442383 14.08496094 C40.03799924 18.19971368 43.15587268 21.93095594 46.84692383 25.45996094 C50.82057086 29.26955832 54.46718253 33.15556273 57.90942383 37.45996094 C62.24743545 42.8583754 66.92012138 47.86863063 71.6796875 52.89575195 C75.96712647 57.44952037 79.92724981 62.15079494 83.83129883 67.03808594 C86.36411243 70.0813891 89.12022679 72.81923586 91.95629883 75.57714844 C94.42088382 78.03154919 96.67464858 80.63563156 98.94067383 83.27246094 C101.15638031 85.81507493 103.43790975 88.29106292 105.72192383 90.77246094 C109.0841846 94.45009262 112.2934924 98.19684406 115.40942383 102.08496094 C118.22967233 105.58424993 121.12772703 108.8244521 124.34692383 111.95996094 C127.44527157 114.97859132 130.22047034 118.07198159 132.90942383 121.45996094 C137.62917134 127.36172634 142.78221112 132.80757632 147.99951172 138.27050781 C151.84489334 142.30220863 155.58144784 146.39864672 159.23022461 150.60913086 C161.50705234 153.21568946 163.86295512 155.73993447 166.22192383 158.27246094 C170.55501138 162.95168713 174.63345153 167.77946954 178.58129883 172.79199219 C179.32895508 173.67242187 180.07661133 174.55285156 180.84692383 175.45996094 C181.28584961 176.07250732 181.72477539 176.68505371 182.17700195 177.31616211 C184.80742448 180.56098088 186.72360798 182.23004407 190.88500977 183.08178711 C194.56499645 183.29692879 198.16289328 183.27462592 201.84692383 183.14746094 C203.14678223 183.12184082 204.44664062 183.0962207 205.78588867 183.06982422 C219.55503271 182.64023935 231.18128187 180.11777499 242.84692383 172.45996094 C243.68739258 171.90824219 244.52786133 171.35652344 245.39379883 170.78808594 C258.46024256 161.29259577 265.90240069 146.83691556 269.84692383 131.45996094 C272.66089381 111.28561164 268.02827993 94.55537611 256.19067383 78.16699219 C246.1316953 65.9016811 230.2826495 58.66506461 214.84692383 56.45996094 C206.92692383 56.12996094 199.00692383 55.79996094 190.84692383 55.45996094 C190.84692383 90.76996094 190.84692383 126.07996094 190.84692383 162.45996094 C189.85692383 162.78996094 188.86692383 163.11996094 187.84692383 163.45996094 C184.11838157 159.7792205 180.51849321 156.00339016 176.97192383 152.14746094 C176.17431641 151.28109009 176.17431641 151.28109009 175.3605957 150.3972168 C170.50080823 145.10500318 165.77006414 139.71653177 161.10864258 134.24902344 C160.08406484 133.04836448 159.05932027 131.84784786 158.03442383 130.64746094 C157.51855713 130.04272949 157.00269043 129.43799805 156.47119141 128.81494141 C153.22627724 125.02574197 149.91474054 121.31634127 146.53442383 117.64746094 C140.52995954 111.04255022 140.52995954 111.04255022 137.78442383 107.77246094 C137.23657227 107.12921875 136.6887207 106.48597656 136.12426758 105.82324219 C132.48575813 99.09144337 133.82734687 90.04855642 133.98391151 82.66447258 C134.06517997 78.23446479 134.07617692 73.80357233 134.09901142 69.37294674 C134.12281508 65.50623995 134.17158864 61.64303473 134.27539062 57.77758789 C135.51585876 38.20297767 135.51585876 38.20297767 127.98161316 21.01026917 C125.62589078 18.70066201 123.20029895 16.63335855 120.52824402 14.69953918 C118.1443866 12.94200495 116.11197192 10.87598757 114.03442383 8.77246094 C113.42985352 8.21171875 112.8252832 7.65097656 112.20239258 7.07324219 C110.63910638 5.21261625 110.15487822 3.85796649 109.84692383 1.45996094 C111.71259666 -0.40571189 114.38819138 0.32682846 116.87159729 0.31332397 C118.17253578 0.31400375 118.17253578 0.31400375 119.49975586 0.31469727 C120.4090535 0.31133865 121.31835114 0.30798004 122.25520325 0.30451965 C125.28839459 0.29495791 128.3215308 0.2930623 131.35473633 0.29199219 C133.47297183 0.28877732 135.5912071 0.28541308 137.70944214 0.28190613 C142.17356885 0.2758978 146.63767617 0.27406738 151.10180664 0.2746582 C156.75726608 0.27475859 162.41259642 0.26124454 168.06802559 0.24388599 C172.45936624 0.23261716 176.85067748 0.23074368 181.2420311 0.23126793 C183.32192291 0.23010474 185.40181592 0.22577916 187.48169327 0.21793556 C198.42607039 0.18060892 209.27991693 0.42196667 220.19018555 1.33764648 C221.11358294 1.41365239 222.03698032 1.4896583 222.98835945 1.56796741 C253.20196202 4.37423965 279.94930036 19.58221163 299.53833008 42.58105469 C310.13808955 55.38369815 317.99403677 69.55057329 322.84692383 85.45996094 C323.05720215 86.13736328 323.26748047 86.81476563 323.48413086 87.51269531 C332.25068036 117.19263644 327.36120084 150.13220643 313.38208008 177.30761719 C308.02933815 186.6637949 301.19072888 195.5788043 293.84692383 203.45996094 C293.18692383 203.45996094 292.52692383 203.45996094 291.84692383 203.45996094 C291.84692383 204.11996094 291.84692383 204.77996094 291.84692383 205.45996094 C262.21010781 234.04932192 224.24093127 238.61704035 184.89477539 238.70019531 C182.05823471 238.71009598 179.22236422 238.74134538 176.38598633 238.77246094 C174.56567804 238.77897617 172.7453647 238.78423241 170.92504883 238.78808594 C169.66570526 238.80660614 169.66570526 238.80660614 168.38092041 238.82550049 C162.5846525 238.80335861 159.38047435 237.64334594 154.92504883 233.80371094 C150.43099753 229.27124894 146.39876383 224.50235342 142.40551758 219.52636719 C139.45798119 215.99382358 136.36689718 212.6287106 133.22192383 209.27246094 C132.65586426 208.66837402 132.08980469 208.06428711 131.5065918 207.44189453 C130.9576123 206.85617676 130.40863281 206.27045898 129.84301758 205.66699219 C125.4770209 201.00804774 121.3151655 196.1892529 117.18286133 191.32324219 C111.63637448 184.80424818 106.00134896 178.4119613 100.15258789 172.16235352 C96.18556391 167.89577072 92.4979486 163.46780727 88.88208008 158.89746094 C86.67467213 156.25365564 84.2986132 153.87780798 81.84692383 151.45996094 C74.72618633 143.89780741 68.14755607 136.00916383 61.78833008 127.80371094 C59.88054564 125.33481523 59.88054564 125.33481523 57.15942383 123.33496094 C51.4329838 118.75963735 47.15252017 112.4446602 42.69848633 106.67871094 C41.03893393 104.38922245 41.03893393 104.38922245 38.84692383 103.45996094 C38.84876741 104.14356375 38.850611 104.82716656 38.85251045 105.5314846 C38.89663512 122.14747313 38.92975386 138.76344315 38.95054817 155.37947655 C38.96087083 163.41478959 38.97495 171.45006358 38.99780273 179.48535156 C39.0177064 186.48703494 39.03063306 193.48869003 39.03510082 200.49040091 C39.03771335 204.19945056 39.0438743 207.90841931 39.05838394 211.61744308 C39.07443158 215.75297418 39.07490547 219.88836367 39.07397461 224.02392578 C39.08116516 225.26038345 39.08835571 226.49684113 39.09576416 227.77076721 C39.09301483 228.89259903 39.0902655 230.01443085 39.08743286 231.17025757 C39.08927645 232.14920172 39.09112003 233.12814587 39.09301949 234.13675499 C38.84692383 236.45996094 38.84692383 236.45996094 36.84692383 238.45996094 C34.56982422 238.72065735 34.56982422 238.72065735 31.69458008 238.73461914 C30.62006592 238.74415115 29.54555176 238.75368317 28.43847656 238.76350403 C27.27388916 238.76259262 26.10930176 238.76168121 24.90942383 238.76074219 C23.71841064 238.76502731 22.52739746 238.76931244 21.30029297 238.77372742 C18.77840817 238.77947869 16.25650678 238.77996515 13.73461914 238.77563477 C9.86291403 238.77247399 5.99197191 238.79592809 2.12036133 238.82128906 C-0.3249502 238.82356177 -2.7702638 238.82426569 -5.21557617 238.82324219 C-6.38016357 238.83245193 -7.54475098 238.84166168 -8.74462891 238.85115051 C-9.81914307 238.84492172 -10.89365723 238.83869293 -12.00073242 238.83227539 C-13.42397827 238.83321953 -13.42397827 238.83321953 -14.87597656 238.83418274 C-15.62741943 238.71068954 -16.3788623 238.58719635 -17.15307617 238.45996094 C-19.18569879 235.411027 -19.40202718 234.85502592 -19.38634777 231.43914604 C-19.38802087 230.20843952 -19.38802087 230.20843952 -19.38972777 228.95287025 C-19.38069326 228.05180899 -19.37165875 227.15074774 -19.36235046 226.22238159 C-19.36068133 225.26497263 -19.35901219 224.30756367 -19.35729247 223.32114232 C-19.34918901 220.09891285 -19.32664345 216.87694434 -19.30419922 213.65478516 C-19.29541398 211.35057885 -19.28750009 209.04636908 -19.28039551 206.74215698 C-19.25845064 200.473806 -19.22389436 194.2055808 -19.18686652 187.93730307 C-19.15002752 181.390126 -19.12376808 174.84290605 -19.09614563 168.29568481 C-19.04852609 157.30140986 -18.99244932 146.3071976 -18.93164062 135.31298828 C-18.869025 123.99074871 -18.81344194 112.66850329 -18.765625 101.34619141 C-18.76267796 100.64858801 -18.75973092 99.95098462 -18.75669458 99.23224173 C-18.75375325 98.53586624 -18.75081192 97.83949075 -18.74778146 97.12201297 C-18.69058597 83.5944716 -18.62571628 70.06697654 -18.55862451 56.53948069 C-18.53974643 52.62960489 -18.52228759 48.71972486 -18.50513268 44.80984116 C-18.47785119 38.67857143 -18.445512 32.54734878 -18.40917206 26.41612625 C-18.39657133 24.15897254 -18.38568034 21.90180858 -18.37657356 19.64463806 C-18.36390382 16.57756923 -18.34515845 13.51059864 -18.32475281 10.443573 C-18.32241046 9.5380503 -18.32006811 8.6325276 -18.31765479 7.69956481 C-18.22851313 -3.13450577 -8.92689357 0.09378419 0 0 Z " fill="#2D5083" transform="translate(103.153076171875,130.5400390625)"/>
<path d="M0 0 C1.92733727 -0.02652373 3.8545349 -0.06735673 5.78125 -0.12304688 C23.85336972 -0.63934872 23.85336972 -0.63934872 28.82348633 3.56933594 C30.46728516 5.49511719 30.46728516 5.49511719 31.84692383 7.45996094 C32.3312085 8.03617188 32.81549316 8.61238281 33.31445312 9.20605469 C34.66811945 10.83130668 35.91983322 12.49670563 37.15942383 14.20996094 C40.70833363 19.08741066 40.70833363 19.08741066 44.84692383 23.45996094 C41.8851726 22.84718482 40.466336 22.20623572 37.84692383 20.45996094 C37.84692383 19.79996094 37.84692383 19.13996094 37.84692383 18.45996094 C37.18692383 18.45996094 36.52692383 18.45996094 35.84692383 18.45996094 C35.76442383 17.84121094 35.68192383 17.22246094 35.59692383 16.58496094 C35.0588165 14.27649289 35.0588165 14.27649289 32.84692383 13.45996094 C30.84692383 12.45996094 30.84692383 12.45996094 30.09692383 10.33496094 C30.01442383 9.71621094 29.93192383 9.09746094 29.84692383 8.45996094 C29.18692383 8.45996094 28.52692383 8.45996094 27.84692383 8.45996094 C27.35192383 6.97496094 27.35192383 6.97496094 26.84692383 5.45996094 C25.85692383 5.12996094 24.86692383 4.79996094 23.84692383 4.45996094 C23.84692383 3.79996094 23.84692383 3.13996094 23.84692383 2.45996094 C10.64692383 2.78996094 -2.55307617 3.11996094 -16.15307617 3.45996094 C-16.14863495 6.29939301 -16.14419373 9.13882507 -16.13961792 12.06430054 C-16.09985048 38.08059541 -16.06997721 64.09688707 -16.05094551 90.11320563 C-16.04844399 93.52045746 -16.04585536 96.92770922 -16.04321289 100.33496094 C-16.04268827 101.01330587 -16.04216365 101.6916508 -16.04162313 102.39055164 C-16.03291187 113.38553982 -16.01713795 124.38050716 -15.99877058 135.37548296 C-15.98009155 146.65075441 -15.96911347 157.92601543 -15.96489918 169.20130312 C-15.96228517 175.53723167 -15.95611476 181.87311291 -15.94161606 188.20902634 C-15.92809373 194.16624124 -15.92384264 200.12338911 -15.92686081 206.0806179 C-15.92630824 208.27285946 -15.9222991 210.46510313 -15.91466522 212.65733147 C-15.90478761 215.63885613 -15.90708084 218.62012406 -15.91256714 221.60165405 C-15.90674146 222.47907363 -15.90091577 223.35649321 -15.89491355 224.26050127 C-15.92483375 230.23171852 -15.92483375 230.23171852 -18.15307617 232.45996094 C-18.17586626 203.04895003 -18.1935742 173.63793975 -18.2041415 144.22692183 C-18.20539228 140.75829618 -18.20668659 137.28967055 -18.20800781 133.82104492 C-18.20827012 133.13047522 -18.20853243 132.43990552 -18.20880269 131.72840946 C-18.21315944 120.53229175 -18.22104702 109.33617916 -18.23022897 98.14006449 C-18.23956537 86.6602636 -18.24505685 75.18046687 -18.24716467 63.70066208 C-18.24847221 57.249086 -18.2515608 50.79752154 -18.25880623 44.34594917 C-18.26556242 38.28122912 -18.26769396 32.21652552 -18.26618385 26.15180206 C-18.26646036 23.91882933 -18.26846785 21.68585608 -18.27228165 19.45288658 C-18.27721263 16.41852666 -18.27607667 13.38422997 -18.27333069 10.34986877 C-18.27624353 9.45397256 -18.27915637 8.55807634 -18.28215748 7.63503176 C-18.2555632 -3.13940268 -8.85066449 0.09298334 0 0 Z " fill="#334767" transform="translate(103.153076171875,130.5400390625)"/>
<path d="M0 0 C1.65 0 3.3 0 5 0 C5 0.66 5 1.32 5 2 C5.66 2 6.32 2 7 2 C7.061875 2.556875 7.12375 3.11375 7.1875 3.6875 C7.91135023 6.28097469 7.91135023 6.28097469 10.5625 8.5625 C11.366875 9.366875 12.17125 10.17125 13 11 C13 11.99 13 12.98 13 14 C8 9 8 9 3 4 C3.00184359 4.68360281 3.00368717 5.36720562 3.00558662 6.07152367 C3.04971129 22.68751219 3.08283003 39.30348221 3.10362434 55.91951561 C3.113947 63.95482865 3.12802617 71.99010264 3.15087891 80.02539062 C3.17078257 87.027074 3.18370923 94.0287291 3.18817699 101.03043997 C3.19078952 104.73948962 3.19695048 108.44845837 3.21146011 112.15748215 C3.22750775 116.29301325 3.22798164 120.42840274 3.22705078 124.56396484 C3.23424133 125.80042252 3.24143188 127.03688019 3.24884033 128.31080627 C3.246091 129.43263809 3.24334167 130.55446991 3.24050903 131.71029663 C3.24235262 132.68924078 3.24419621 133.66818493 3.24609566 134.67679405 C3 137 3 137 1 139 C-1.27709961 139.26069641 -1.27709961 139.26069641 -4.15234375 139.2746582 C-5.22685791 139.28419022 -6.30137207 139.29372223 -7.40844727 139.30354309 C-8.57303467 139.30263168 -9.73762207 139.30172028 -10.9375 139.30078125 C-12.12851318 139.30506638 -13.31952637 139.3093515 -14.54663086 139.31376648 C-17.06851566 139.31951775 -19.59041705 139.32000421 -22.11230469 139.31567383 C-25.9840098 139.31251305 -29.85495192 139.33596716 -33.7265625 139.36132812 C-36.17187403 139.36360083 -38.61718763 139.36430475 -41.0625 139.36328125 C-42.2270874 139.372491 -43.3916748 139.38170074 -44.59155273 139.39118958 C-45.66606689 139.38496078 -46.74058105 139.37873199 -47.84765625 139.37231445 C-49.2709021 139.37325859 -49.2709021 139.37325859 -50.72290039 139.3742218 C-51.47434326 139.25072861 -52.22578613 139.12723541 -53 139 C-53.66 138.01 -54.32 137.02 -55 136 C-54.67 135.01 -54.34 134.02 -54 133 C-53.34 134.32 -52.68 135.64 -52 137 C-45.05829978 137.05058729 -38.11664685 137.08568579 -31.17480469 137.10986328 C-28.81183089 137.11993924 -26.44886961 137.13360029 -24.0859375 137.15087891 C-20.69528112 137.17505724 -17.30478916 137.18646699 -13.9140625 137.1953125 C-12.85256989 137.20563507 -11.79107727 137.21595764 -10.69741821 137.22659302 C-9.71655243 137.22674408 -8.73568665 137.22689514 -7.72509766 137.22705078 C-6.85905914 137.231492 -5.99302063 137.23593323 -5.10073853 137.24050903 C-2.78084656 137.19557184 -2.78084656 137.19557184 -1 135 C-0.68503918 132.54157608 -0.68503918 132.54157608 -0.7215271 129.6343689 C-0.71036362 128.49570877 -0.69920013 127.35704865 -0.68769836 126.18388367 C-0.68553818 124.92872452 -0.68337799 123.67356537 -0.68115234 122.38037109 C-0.66608391 120.40483498 -0.66608391 120.40483498 -0.65071106 118.38938904 C-0.62334363 114.7718667 -0.60824181 111.15438344 -0.59528303 107.53678465 C-0.57968186 103.75841492 -0.55288211 99.98012536 -0.5272522 96.20181274 C-0.48041086 89.04434243 -0.44369275 81.88685713 -0.41057932 74.72931159 C-0.37239567 66.58184963 -0.32297574 58.43446809 -0.27259517 50.28707385 C-0.16919571 33.52477359 -0.07996148 16.76242879 0 0 Z " fill="#1E4164" transform="translate(139,230)"/>
<path d="M0 0 C3 1 3 1 4.09765625 2.53125 C11.00948177 16.63473202 10.21497493 32.82701532 6.5 47.83203125 C5.93339742 50.11027691 5.93339742 50.11027691 5.65234375 52.92578125 C4.90728444 56.436929 3.65502768 58.47765398 1.5625 61.375 C0.94503906 62.24898438 0.32757813 63.12296875 -0.30859375 64.0234375 C-0.86675781 64.67570312 -1.42492187 65.32796875 -2 66 C-2.66 66 -3.32 66 -4 66 C-4.495 67.98 -4.495 67.98 -5 70 C-5.99 70 -6.98 70 -8 70 C-8.103125 70.5775 -8.20625 71.155 -8.3125 71.75 C-9.12253748 74.40103175 -10.14781676 75.94201863 -12 78 C-13.31747324 78.69748583 -14.64914193 79.36959957 -16 80 C-16.33 80.66 -16.66 81.32 -17 82 C-18.55859375 83.0703125 -18.55859375 83.0703125 -20.4375 84.125 C-21.05496094 84.47820312 -21.67242187 84.83140625 -22.30859375 85.1953125 C-24 86 -24 86 -26 86 C-26 86.66 -26 87.32 -26 88 C-27.051875 88.4021875 -27.051875 88.4021875 -28.125 88.8125 C-31.01560212 89.93515126 -31.01560212 89.93515126 -33.625 91.5 C-42.91890904 95.63062624 -53.01552728 95.25597694 -63 95.125 C-64.30839844 95.11597656 -65.61679687 95.10695313 -66.96484375 95.09765625 C-69.3672253 95.08030158 -71.7695834 95.05881891 -74.171875 95.03173828 C-76.11448982 95.00993753 -78.05726286 95 -80 95 C-80.33 92.69 -80.66 90.38 -81 88 C-80.20203003 88.72908569 -80.20203003 88.72908569 -79.38793945 89.47290039 C-76.34522078 91.41873469 -74.38966662 91.40167586 -70.79296875 91.43359375 C-69.57335449 91.44503418 -68.35374023 91.45647461 -67.09716797 91.46826172 C-65.80697754 91.45811035 -64.51678711 91.44795898 -63.1875 91.4375 C-61.21740967 91.42614014 -61.21740967 91.42614014 -59.20751953 91.41455078 C-45.30813842 91.17844226 -33.7806186 88.73328951 -22 81 C-21.15953125 80.44828125 -20.3190625 79.8965625 -19.453125 79.328125 C-6.38668126 69.83263483 1.05547686 55.37695462 5 40 C6.96190979 25.93437259 5.49839525 13.07870715 0 0 Z " fill="#203A57" transform="translate(368,222)"/>
<path d="M0 0 C1.30093849 0.00067978 1.30093849 0.00067978 2.62815857 0.00137329 C3.53745621 -0.00198532 4.44675385 -0.00534393 5.38360596 -0.00880432 C8.4167973 -0.01836606 11.44993351 -0.02026168 14.48313904 -0.02133179 C16.60137454 -0.02454665 18.71960981 -0.0279109 20.83784485 -0.03141785 C25.30197156 -0.03742617 29.76607888 -0.03925659 34.23020935 -0.03866577 C39.88566879 -0.03856539 45.54099913 -0.05207943 51.1964283 -0.06943798 C55.58776895 -0.08070682 59.97908019 -0.0825803 64.37043381 -0.08205605 C66.45032562 -0.08321923 68.53021863 -0.08754482 70.61009598 -0.09538841 C81.57529581 -0.13278607 92.4465494 0.11327773 103.37718201 1.03604126 C104.30843462 1.11361821 105.23968723 1.19119516 106.19915962 1.27112293 C111.93105008 1.80559707 117.38020985 2.78987089 122.97532654 4.14663696 C122.97532654 4.47663696 122.97532654 4.80663696 122.97532654 5.14663696 C121.49625762 5.17352913 120.01705171 5.19298318 118.53782654 5.20913696 C117.30226013 5.22653931 117.30226013 5.22653931 116.04173279 5.24429321 C113.97532654 5.14663696 113.97532654 5.14663696 112.97532654 4.14663696 C102.64772746 2.82703384 92.17029381 3.02304113 81.78040886 3.07147217 C78.96549603 3.08445249 76.15063136 3.09080543 73.33569336 3.09561157 C67.36138256 3.10693403 61.38711211 3.12617213 55.41282654 3.14663696 C48.47636234 3.17038241 41.53992157 3.19072471 34.60342598 3.20257568 C31.85345395 3.20897515 29.10355566 3.22147762 26.35360718 3.23428345 C17.16960583 3.26076657 8.12213492 3.06905881 -1.02467346 2.14663696 C-1.02467346 3.46663696 -1.02467346 4.78663696 -1.02467346 6.14663696 C0.62532654 6.47663696 2.27532654 6.80663696 3.97532654 7.14663696 C3.97532654 8.13663696 3.97532654 9.12663696 3.97532654 10.14663696 C3.31532654 10.14663696 2.65532654 10.14663696 1.97532654 10.14663696 C1.64532654 10.80663696 1.31532654 11.46663696 0.97532654 12.14663696 C-0.17966243 11.07307019 -1.32335213 9.98733908 -2.46217346 8.89663696 C-3.1002594 8.29335571 -3.73834534 7.69007446 -4.39576721 7.06851196 C-6.11638151 5.03843466 -6.71625171 3.77102566 -7.02467346 1.14663696 C-5.15900063 -0.71903587 -2.48340591 0.01350448 0 0 Z " fill="#2E4869" transform="translate(220.02467346191406,130.85336303710938)"/>
<path d="M0 0 C4.45563631 3.63725413 8.32678893 7.35373171 12.05078125 11.73046875 C14.31653762 14.36855382 16.65355537 16.93346525 19 19.5 C21.82577384 22.59731967 24.63218779 25.7040415 27.375 28.875 C30.40276865 32.3636702 33.53982318 35.74497796 36.6875 39.125 C40.90448697 43.65915302 44.99574203 48.27713012 49 53 C54.37165451 59.33313848 59.96076455 65.43557969 65.62011719 71.51123047 C69.12880087 75.2967848 72.56444333 79.14821242 76 83 C76.6496875 83.72058594 77.299375 84.44117188 77.96875 85.18359375 C81.3341655 88.95542595 84.31979693 92.71167509 87 97 C86.01 97.495 86.01 97.495 85 98 C84.34 97.67 83.68 97.34 83 97 C82.01 97.99 81.02 98.98 80 100 C80.20625 99.0925 80.4125 98.185 80.625 97.25 C81.02244763 93.8054539 81.05918035 92.7143741 79 90 C78.236875 89.5875 77.47375 89.175 76.6875 88.75 C73.34837886 86.57568856 72.03859113 84.16635426 70.11328125 80.7421875 C69.10753311 78.84006676 69.10753311 78.84006676 67 78 C67 77.34 67 76.68 67 76 C65.515 75.505 65.515 75.505 64 75 C60.66539015 71.9218986 57.6761357 68.66729707 55 65 C55 64.34 55 63.68 55 63 C54.34 63 53.68 63 53 63 C53 62.34 53 61.68 53 61 C52.4225 60.79375 51.845 60.5875 51.25 60.375 C47.33149206 57.98035626 45.42416226 54.27248678 44 50 C43.01 49.505 43.01 49.505 42 49 C41.67 48.01 41.34 47.02 41 46 C39.08333333 44.83333333 39.08333333 44.83333333 37 44 C36.01 43.505 36.01 43.505 35 43 C35 42.34 35 41.68 35 41 C34.34 41 33.68 41 33 41 C32.9175 40.38125 32.835 39.7625 32.75 39.125 C32.21868674 36.82530563 32.21868674 36.82530563 30.0625 36.0625 C27.24533563 34.6112335 27.14848751 32.87121876 26 30 C24.11683841 28.89163577 24.11683841 28.89163577 22 28 C19.56024508 25.77551757 17.84086301 23.76129452 16 21 C16 20.01 16 19.02 16 18 C15.34 18 14.68 18 14 18 C14 17.34 14 16.68 14 16 C13.443125 15.95875 12.88625 15.9175 12.3125 15.875 C9.42966513 14.78419762 8.15876692 13.01794749 6.30078125 10.625 C4.84024362 8.73928174 4.84024362 8.73928174 2.25 6.25 C0 4 0 4 -1 2 C-0.67 1.34 -0.34 0.68 0 0 Z " fill="#244265" transform="translate(163,172)"/>
<path d="M0 0 C0.33 0 0.66 0 1 0 C1 35.64 1 71.28 1 108 C-0.485 108.495 -0.485 108.495 -2 109 C-1.83259308 108.27282272 -1.66518616 107.54564545 -1.4927063 106.7964325 C-1.02455054 104.13934046 -0.96113668 101.93983238 -1.11669922 99.25708008 C-1.16448517 98.33650314 -1.21227112 97.41592621 -1.26150513 96.467453 C-1.3447554 94.97729424 -1.3447554 94.97729424 -1.4296875 93.45703125 C-2.04855433 80.72852351 -2.15309764 68.02468461 -2.13037109 55.28295898 C-2.12489563 51.61763582 -2.1304172 47.9524294 -2.13671875 44.28710938 C-2.13605974 41.94531223 -2.13478227 39.60351516 -2.1328125 37.26171875 C-2.13483673 36.17130783 -2.13686096 35.08089691 -2.13894653 33.95744324 C-2.13579437 32.95401382 -2.13264221 31.95058441 -2.12939453 30.91674805 C-2.12859894 30.0364946 -2.12780334 29.15624115 -2.12698364 28.24931335 C-2 26 -2 26 -1 23 C-0.90314891 20.17707563 -0.86078254 17.38466638 -0.875 14.5625 C-0.87113281 13.79873047 -0.86726563 13.03496094 -0.86328125 12.24804688 C-0.86457031 11.50748047 -0.86585938 10.76691406 -0.8671875 10.00390625 C-0.86831543 9.33174072 -0.86944336 8.6595752 -0.87060547 7.96704102 C-0.9304334 5.946064 -0.9304334 5.946064 -1.63330078 3.87475586 C-1.75431152 3.25608643 -1.87532227 2.63741699 -2 2 C-1.34 1.34 -0.68 0.68 0 0 Z " fill="#264A74" transform="translate(293,185)"/>
<path d="M0 0 C4.75 1.875 4.75 1.875 7 3 C7.13071607 12.18816288 7.26112795 21.37633001 7.39115143 30.56450272 C7.45153592 34.83092713 7.51202522 39.09735 7.57275391 43.36376953 C7.63135562 47.4810324 7.68968221 51.59829907 7.74781799 55.71556854 C7.770047 57.28643686 7.79237516 58.85730378 7.81480408 60.42816925 C7.84619955 62.62821598 7.87724258 64.82826742 7.90820312 67.02832031 C7.92596802 68.28074524 7.94373291 69.53317017 7.96203613 70.82354736 C7.99062465 73.21556088 8 75.60781565 8 78 C8.66 78.99 9.32 79.98 10 81 C9.67 81.99 9.34 82.98 9 84 C2.25992752 77.04250583 3.84562741 66.96527049 3.80076981 57.86829376 C3.78885821 55.66534351 3.76938181 53.46257873 3.74765015 51.25970459 C3.68640023 45.00246315 3.63186167 38.74525158 3.59863281 32.48779297 C3.57769511 28.64640639 3.54241958 24.80537747 3.49787521 20.96419525 C3.48373007 19.50501454 3.47499611 18.04577078 3.47182083 16.58652496 C3.46691474 14.55011876 3.44215154 12.51378966 3.41650391 10.47753906 C3.40841705 9.32030334 3.4003302 8.16306763 3.39199829 6.97076416 C2.9660373 3.74261323 2.1825822 2.36202761 0 0 Z " fill="#3A567F" transform="translate(233,155)"/>
<path d="M0 0 C3 1 3 1 4.09765625 2.53125 C11.00948177 16.63473202 10.21497493 32.82701532 6.5 47.83203125 C5.93339742 50.11027691 5.93339742 50.11027691 5.65234375 52.92578125 C4.90728444 56.436929 3.65502768 58.47765398 1.5625 61.375 C0.94503906 62.24898438 0.32757813 63.12296875 -0.30859375 64.0234375 C-1.14583984 65.00183594 -1.14583984 65.00183594 -2 66 C-2.66 66 -3.32 66 -4 66 C-4.33 67.32 -4.66 68.64 -5 70 C-5.99 70 -6.98 70 -8 70 C-8.103125 70.5775 -8.20625 71.155 -8.3125 71.75 C-9.09792798 74.32049158 -10.30504197 75.93657284 -12 78 C-12.99 77.67 -13.98 77.34 -15 77 C-14.19175781 75.97261719 -13.38351562 74.94523437 -12.55078125 73.88671875 C-6.66566448 66.30006954 -1.25045878 59.13565066 2 50 C2.45439453 48.82824219 2.45439453 48.82824219 2.91796875 47.6328125 C8.38347301 31.98042941 6.31238171 15.01488853 0 0 Z " fill="#22395D" transform="translate(368,222)"/>
<path d="M0 0 C0.33 0 0.66 0 1 0 C0.48167157 5.99106883 -0.82188164 10.8629958 -3.1875 16.375 C-3.50283691 17.12031982 -3.81817383 17.86563965 -4.14306641 18.63354492 C-9.81248761 31.75424618 -18.2650679 43.55275579 -28 54 C-28.66 54 -29.32 54 -30 54 C-30 54.66 -30 55.32 -30 56 C-47.14052953 72 -47.14052953 72 -53 72 C-52.67 70.68 -52.34 69.36 -52 68 C-50.68 68 -49.36 68 -48 68 C-48 67.34 -48 66.68 -48 66 C-43.61538462 63 -43.61538462 63 -41 63 C-40.67 62.01 -40.34 61.02 -40 60 C-38.125 57.8125 -38.125 57.8125 -36 56 C-35.01 56 -34.02 56 -33 56 C-32.90074219 55.39800781 -32.80148437 54.79601562 -32.69921875 54.17578125 C-31.86220681 51.57122454 -30.96114677 50.83337291 -28.8125 49.1875 C-24.14700375 45.39379052 -20.3329237 41.23740765 -17.25 36.0625 C-16.63125 35.0415625 -16.63125 35.0415625 -16 34 C-15.34 34 -14.68 34 -14 34 C-13.731875 32.865625 -13.46375 31.73125 -13.1875 30.5625 C-12.795625 29.386875 -12.40375 28.21125 -12 27 C-11.01 26.67 -10.02 26.34 -9 26 C-8.89042969 25.33613281 -8.78085937 24.67226563 -8.66796875 23.98828125 C-7.7619476 18.94255373 -6.69625898 15.38142085 -4 11 C-3.40817083 8.67349911 -2.94448336 6.35207237 -2.52734375 3.98828125 C-2 2 -2 2 0 0 Z " fill="#294061" transform="translate(425,280)"/>
<path d="M0 0 C12.25696713 14.86791871 14.46057102 38.56723166 14.5 57 C14.50628418 58.27488281 14.51256836 59.54976562 14.51904297 60.86328125 C14.40203737 69.6148456 13.13542333 77.52361013 11 86 C7.99382731 82.99382731 8.40414684 80.17618402 8 76 C8.66 76 9.32 76 10 76 C10.82200683 72.35962463 11.16783601 68.9114753 11.28125 65.18359375 C11.31863281 64.08982422 11.35601562 62.99605469 11.39453125 61.86914062 C11.46496369 59.57747764 11.53527578 57.28581096 11.60546875 54.99414062 C11.64285156 53.90166016 11.68023437 52.80917969 11.71875 51.68359375 C11.76418945 50.19170532 11.76418945 50.19170532 11.81054688 48.66967773 C11.97789975 46.31142559 12.33670152 44.26145845 13 42 C12.01 41.67 11.02 41.34 10 41 C9.96261719 40.2265625 9.92523438 39.453125 9.88671875 38.65625 C9.5328007 33.04907775 9.03276469 28.16889602 6.8203125 22.9921875 C5.87546533 20.69755866 5.18832455 18.3837766 4.5 16 C3.5651681 12.78991586 2.5295013 9.6764235 1.3125 6.5625 C0 3 0 3 0 0 Z " fill="#284164" transform="translate(416,194)"/>
<path d="M0 0 C1.1282554 1.1282554 2.25614956 2.25687314 3.3828125 3.38671875 C4.53917449 4.5402876 5.70129744 5.68809309 6.8671875 6.83203125 C11.47690248 11.37896801 15.79421168 16.08002121 20 21 C21.0230095 22.18266202 22.04648777 23.36491865 23.0703125 24.546875 C24.17210372 25.82271919 25.27366481 27.09876214 26.375 28.375 C26.91157227 28.99455566 27.44814453 29.61411133 28.00097656 30.25244141 C31.8856153 34.7712306 31.8856153 34.7712306 33 37 C30.125 36.3125 30.125 36.3125 27 35 C26.30959426 33.34302621 25.6469365 31.6744239 25 30 C23.23457557 28.31726523 21.38956331 26.82376427 19.4609375 25.33203125 C18.97882813 24.89246094 18.49671875 24.45289063 18 24 C18 23.34 18 22.68 18 22 C17.21625 21.7525 16.4325 21.505 15.625 21.25 C12.5144918 19.76880562 12.38379532 19.02705226 11 16 C10.154375 15.154375 9.30875 14.30875 8.4375 13.4375 C6 11 6 11 5 8 C4.34 8 3.68 8 3 8 C3 7.34 3 6.68 3 6 C2.01 5.67 1.02 5.34 0 5 C-0.33 4.01 -0.66 3.02 -1 2 C-0.67 1.34 -0.34 0.68 0 0 Z " fill="#223F64" transform="translate(254,273)"/>
<path d="M0 0 C0.33 0 0.66 0 1 0 C1 35.64 1 71.28 1 108 C-0.485 108.495 -0.485 108.495 -2 109 C-1.67 108.01 -1.34 107.02 -1 106 C-0.90990202 104.62555478 -0.87372826 103.24716117 -0.87301636 101.86976624 C-0.87019653 101.03000748 -0.86737671 100.19024872 -0.86447144 99.32504272 C-0.86649567 98.40703888 -0.8685199 97.48903503 -0.87060547 96.54321289 C-0.86885315 95.57384293 -0.86710083 94.60447296 -0.86529541 93.60572815 C-0.86088673 90.39468608 -0.86381168 87.1836989 -0.8671875 83.97265625 C-0.86651412 81.74450164 -0.86554382 79.51634711 -0.86428833 77.28819275 C-0.86281265 72.61505434 -0.86496158 67.94193502 -0.86962891 63.26879883 C-0.8753228 57.27526102 -0.87204851 51.28176801 -0.86605644 45.28823185 C-0.86244454 40.68578249 -0.86359238 36.08334377 -0.86618423 31.48089409 C-0.86685193 29.27086825 -0.86603056 27.06084144 -0.86370468 24.85081673 C-0.86116826 21.76257898 -0.86503298 18.67441397 -0.87060547 15.58618164 C-0.86858124 14.67020203 -0.86655701 13.75422241 -0.86447144 12.81048584 C-0.86729126 11.96790726 -0.87011108 11.12532867 -0.87301636 10.25721741 C-0.87339338 9.52736665 -0.87377041 8.79751589 -0.87415886 8.04554844 C-0.92601794 5.95614709 -0.92601794 5.95614709 -1.63293648 3.85892391 C-1.75406744 3.24547902 -1.8751984 2.63203413 -2 2 C-1.34 1.34 -0.68 0.68 0 0 Z " fill="#2B4363" transform="translate(293,185)"/>
<path d="M0 0 C5.40755017 -0.17395612 10.8134482 -0.30049016 16.22314453 -0.38452148 C18.06034742 -0.41957274 19.89735716 -0.46723026 21.73388672 -0.52807617 C38.9723703 -1.08460888 38.9723703 -1.08460888 43.91796875 3.10546875 C45.58740234 5.03295898 45.58740234 5.03295898 47 7 C47.48549316 7.5762915 47.97098633 8.15258301 48.47119141 8.74633789 C49.82206597 10.37226776 51.07363509 12.03774768 52.3125 13.75 C55.86140981 18.62744972 55.86140981 18.62744972 60 23 C57.03824877 22.38722388 55.61941217 21.74627478 53 20 C53 19.34 53 18.68 53 18 C52.34 18 51.68 18 51 18 C50.9175 17.38125 50.835 16.7625 50.75 16.125 C50.21189267 13.81653196 50.21189267 13.81653196 48 13 C46 12 46 12 45.25 9.875 C45.1675 9.25625 45.085 8.6375 45 8 C44.34 8 43.68 8 43 8 C42.505 6.515 42.505 6.515 42 5 C41.01 4.67 40.02 4.34 39 4 C39 3.34 39 2.68 39 2 C38.11183594 2.01160156 37.22367188 2.02320313 36.30859375 2.03515625 C24.18439225 2.12079642 12.10774793 1.59838502 0 1 C0 0.67 0 0.34 0 0 Z " fill="#25445F" transform="translate(88,131)"/>
<path d="M0 0 C1.65 0 3.3 0 5 0 C5 0.66 5 1.32 5 2 C5.66 2 6.32 2 7 2 C7.061875 2.556875 7.12375 3.11375 7.1875 3.6875 C7.91135023 6.28097469 7.91135023 6.28097469 10.5625 8.5625 C11.366875 9.366875 12.17125 10.17125 13 11 C13 11.99 13 12.98 13 14 C9.66666667 10.66666667 6.33333333 7.33333333 3 4 C3.01160156 4.73863281 3.02320313 5.47726563 3.03515625 6.23828125 C3.09729577 13.22453848 2.76544986 20.0562763 2 27 C0 25 0 25 -0.22705078 22.47802734 C-0.21657715 21.4411377 -0.20610352 20.40424805 -0.1953125 19.3359375 C-0.18886719 18.21445313 -0.18242187 17.09296875 -0.17578125 15.9375 C-0.15902344 14.761875 -0.14226562 13.58625 -0.125 12.375 C-0.11597656 11.19164062 -0.10695312 10.00828125 -0.09765625 8.7890625 C-0.07402812 5.85917477 -0.04108514 2.9296866 0 0 Z " fill="#223B64" transform="translate(139,230)"/>
<path d="M0 0 C0.99 0 1.98 0 3 0 C2.8613543 7.48686787 -0.04836457 12.41940395 -5 18 C-5.66 18 -6.32 18 -7 18 C-7.33 19.32 -7.66 20.64 -8 22 C-8.99 22 -9.98 22 -11 22 C-11.103125 22.5775 -11.20625 23.155 -11.3125 23.75 C-12.09792798 26.32049158 -13.30504197 27.93657284 -15 30 C-15.99 29.67 -16.98 29.34 -18 29 C-17.20335937 27.99582031 -16.40671875 26.99164063 -15.5859375 25.95703125 C-9.11698731 17.65786138 -3.85084347 9.86356398 0 0 Z " fill="#2B4767" transform="translate(371,270)"/>
<path d="M0 0 C11.79302572 2.91627968 21.27922406 8.87283673 31 16 C29.1875 16.625 29.1875 16.625 27 17 C25 15.66666667 23 14.33333333 21 13 C18.80252869 13.29805007 18.80252869 13.29805007 17 14 C16.34 13.34 15.68 12.68 15 12 C15 11.01 15 10.02 15 9 C14.360625 8.87625 13.72125 8.7525 13.0625 8.625 C12.381875 8.41875 11.70125 8.2125 11 8 C10.67 7.34 10.34 6.68 10 6 C7.7068617 5.15771266 5.38505043 4.53067061 3.03125 3.87890625 C2.3609375 3.58886719 1.690625 3.29882812 1 3 C0.67 2.01 0.34 1.02 0 0 Z " fill="#2A446C" transform="translate(351,138)"/>
<path d="M0 0 C0.66 0 1.32 0 2 0 C2.01458252 1.22106445 2.02916504 2.44212891 2.04418945 3.70019531 C2.10218565 8.23288172 2.17941857 12.76507204 2.26245117 17.29736328 C2.29569428 19.25854436 2.32372815 21.21982098 2.34643555 23.18115234 C2.37999281 26.00139047 2.43230899 28.82075365 2.48828125 31.640625 C2.49786613 32.95489471 2.49786613 32.95489471 2.50764465 34.29571533 C2.61958917 38.93627276 2.84185535 41.39915556 6 45 C5.67 45.99 5.34 46.98 5 48 C-0.80747826 42.00518373 -0.15368926 34.4257074 -0.09765625 26.5625 C-0.0962413 25.79695801 -0.09482635 25.03141602 -0.09336853 24.24267578 C-0.08782853 21.82840858 -0.07528779 19.41423856 -0.0625 17 C-0.05747723 15.35026177 -0.05291569 13.70052206 -0.04882812 12.05078125 C-0.03787886 8.03381745 -0.02065666 4.01692513 0 0 Z " fill="#3A4575" transform="translate(237,191)"/>
<path d="M0 0 C7.34693878 -0.48979592 7.34693878 -0.48979592 10.5 1.875 C12 4 12 4 12 6 C12.74894531 6.22945312 13.49789063 6.45890625 14.26953125 6.6953125 C17.56253367 8.26879291 18.69072833 9.85067616 20.6875 12.875 C21.26886719 13.73867187 21.85023438 14.60234375 22.44921875 15.4921875 C24 18 24 18 25.08203125 20.2578125 C25.88016965 22.18293127 25.88016965 22.18293127 28 23 C27.67 24.32 27.34 25.64 27 27 C26.22076172 25.91332031 26.22076172 25.91332031 25.42578125 24.8046875 C23.3000021 21.85767389 21.15287416 18.92726016 19 16 C18.57332031 15.39929688 18.14664062 14.79859375 17.70703125 14.1796875 C14.60237281 10.07750342 10.6236414 7.44265641 6.40234375 4.61328125 C4.21022557 3.14117587 2.09730261 1.6032498 0 0 Z " fill="#304E6D" transform="translate(340,193)"/>
<path d="M0 0 C9.86568202 7.67330824 19.49000703 18.71273829 25 30 C24.67 30.66 24.34 31.32 24 32 C19 26.375 19 26.375 19 23 C18.34 23 17.68 23 17 23 C16.67 22.01 16.34 21.02 16 20 C14.67151309 18.99357052 13.33849671 17.99307821 12 17 C12 16.34 12 15.68 12 15 C11.34 15 10.68 15 10 15 C9.401875 13.906875 8.80375 12.81375 8.1875 11.6875 C5.92722622 7.74793831 4.4221438 5.47404793 0 4 C0 2.68 0 1.36 0 0 Z " fill="#294364" transform="translate(391,162)"/>
<path d="M0 0 C2.95085097 1.32031716 4.93491037 2.71568251 7.12890625 5.08203125 C7.96905273 5.98598633 7.96905273 5.98598633 8.82617188 6.90820312 C9.6856543 7.85083008 9.6856543 7.85083008 10.5625 8.8125 C11.13935547 9.42931641 11.71621094 10.04613281 12.31054688 10.68164062 C15.31203906 13.93931553 17.89480132 17.06679962 20 21 C19.34 21.33 18.68 21.66 18 22 C17.34 21.67 16.68 21.34 16 21 C15.01 21.99 14.02 22.98 13 24 C13.20625 23.0925 13.4125 22.185 13.625 21.25 C14.02244763 17.8054539 14.05918035 16.7143741 12 14 C11.236875 13.5875 10.47375 13.175 9.6875 12.75 C6.34837886 10.57568856 5.03859113 8.16635426 3.11328125 4.7421875 C2.10753311 2.84006676 2.10753311 2.84006676 0 2 C0 1.34 0 0.68 0 0 Z " fill="#254368" transform="translate(230,248)"/>
<path d="M0 0 C1.98 0.99 1.98 0.99 4 2 C4 3.32 4 4.64 4 6 C4.598125 6.226875 5.19625 6.45375 5.8125 6.6875 C8.56626907 8.33976144 9.36525182 10.2754197 11 13 C12.32520503 13.68268138 13.65812182 14.3507041 15 15 C16.125 17.0625 16.125 17.0625 17 19 C17.66 19.33 18.32 19.66 19 20 C19.625 22.5625 19.625 22.5625 20 25 C16.07102312 22.14256227 13.03622389 18.90185524 9.9140625 15.22265625 C8.5675923 13.65910208 7.18345748 12.12758879 5.7734375 10.62109375 C5.04382813 9.83863281 4.31421875 9.05617187 3.5625 8.25 C2.88316406 7.53328125 2.20382813 6.8165625 1.50390625 6.078125 C0 4 0 4 0 0 Z " fill="#2C4568" transform="translate(245,239)"/>
<path d="M0 0 C0.48984375 0.48082031 0.9796875 0.96164062 1.484375 1.45703125 C4.95197018 3.58389475 8.29230026 3.56513296 12.25 3.6875 C13.36761719 3.73874023 13.36761719 3.73874023 14.5078125 3.79101562 C16.33802492 3.87314054 18.16898669 3.93825653 20 4 C18.90625 5.48828125 18.90625 5.48828125 17 7 C13.96875 7.29296875 13.96875 7.29296875 10.5 7.1875 C9.3553125 7.16042969 8.210625 7.13335937 7.03125 7.10546875 C6.0309375 7.07066406 5.030625 7.03585937 4 7 C3.01 7 2.02 7 1 7 C0.67 4.69 0.34 2.38 0 0 Z " fill="#264068" transform="translate(287,310)"/>
<path d="M0 0 C2.475 0.495 2.475 0.495 5 1 C5 1.99 5 2.98 5 4 C5.99 4 6.98 4 8 4 C8.33 5.32 8.66 6.64 9 8 C9.66 8 10.32 8 11 8 C11.433125 8.78375 11.86625 9.5675 12.3125 10.375 C14.26798281 13.41686215 15.60211849 13.98981901 19 15 C18.67 16.65 18.34 18.3 18 20 C16.85025968 18.85025968 15.70118457 17.69984945 14.5546875 16.546875 C13.48682405 15.4843777 12.40801889 14.43279949 11.3203125 13.390625 C7.04415216 9.24750076 3.44261664 4.85497218 0 0 Z " fill="#284A67" transform="translate(268,268)"/>
<path d="M0 0 C3.20575987 0.34347427 3.97516759 0.9707854 6.125 3.5 C6.74375 4.325 7.3625 5.15 8 6 C8.66 6.33 9.32 6.66 10 7 C10 7.66 10 8.32 10 9 C10.66 9 11.32 9 12 9 C15.16170037 12.16170037 16.29678172 14.66348727 17 19 C13.22514475 16.17219324 10.31720549 13.18028453 7.375 9.5 C6.61960938 8.5615625 5.86421875 7.623125 5.0859375 6.65625 C3.35986442 4.45825431 1.66314054 2.2457694 0 0 Z " fill="#314A6C" transform="translate(240,343)"/>
<path d="M0 0 C3.6032236 0.30026863 4.72864403 0.68075768 7.125 3.5 C7.74375 4.325 8.3625 5.15 9 6 C9.99 6.33 10.98 6.66 12 7 C13.25 8.875 13.25 8.875 14 11 C13.67 11.99 13.34 12.98 13 14 C7.7957801 9.75139368 3.67915561 5.63370702 0 0 Z " fill="#2A3F66" transform="translate(152,244)"/>
<path d="M0 0 C0.84755859 0.00966797 1.69511719 0.01933594 2.56835938 0.02929688 C3.44943359 0.05443359 4.33050781 0.07957031 5.23828125 0.10546875 C6.13095703 0.11900391 7.02363281 0.13253906 7.94335938 0.14648438 C10.14644291 0.18182796 12.34830707 0.23116382 14.55078125 0.29296875 C14.55078125 0.95296875 14.55078125 1.61296875 14.55078125 2.29296875 C9.6934848 3.26596031 5.10071875 3.4133568 0.17578125 3.35546875 C-0.56027344 3.35095703 -1.29632813 3.34644531 -2.0546875 3.34179688 C-3.85290033 3.33012017 -5.65107072 3.31218886 -7.44921875 3.29296875 C-5.08036651 0.42052834 -3.69085058 -0.07431243 0 0 Z " fill="#264267" transform="translate(311.44921875,313.70703125)"/>
<path d="M0 0 C0.33 0 0.66 0 1 0 C2.28178852 5.45285445 2.31336795 10.92600698 2.5234375 16.50390625 C3.01755113 20.12875622 3.77376976 21.25763259 6 24 C5.67 24.99 5.34 25.98 5 27 C-1.99257394 19.78185916 -0.1186733 9.38837674 0 0 Z " fill="#324C68" transform="translate(237,212)"/>
<path d="M0 0 C0.66 0.33 1.32 0.66 2 1 C3.41904116 5.54093172 3.09226843 10.2943099 3 15 C2.01 15 1.02 15 0 15 C-1.09651823 11.58860997 -0.94215473 8.79344419 -0.5625 5.25 C-0.46066406 4.26515625 -0.35882813 3.2803125 -0.25390625 2.265625 C-0.17011719 1.51796875 -0.08632812 0.7703125 0 0 Z " fill="#274464" transform="translate(139,352)"/>
<path d="M0 0 C0.33 0.66 0.66 1.32 1 2 C1.62648437 2.1340625 2.25296875 2.268125 2.8984375 2.40625 C5.59136492 3.16707708 6.14689371 4.17317462 7.625 6.5 C9.33468108 9.26274124 9.33468108 9.26274124 12 11 C11.67 12.32 11.34 13.64 11 15 C7.04 10.71 3.08 6.42 -1 2 C-0.67 1.34 -0.34 0.68 0 0 Z " fill="#2A4766" transform="translate(216,314)"/>
<path d="M0 0 C1.65 0 3.3 0 5 0 C5 0.66 5 1.32 5 2 C5.66 2 6.32 2 7 2 C7.061875 2.556875 7.12375 3.11375 7.1875 3.6875 C7.91135023 6.28097469 7.91135023 6.28097469 10.5625 8.5625 C11.366875 9.366875 12.17125 10.17125 13 11 C13 11.99 13 12.98 13 14 C9.5223947 10.62467721 6.37888869 7.12585434 3.33203125 3.35546875 C2.89246094 2.90816406 2.45289063 2.46085938 2 2 C1.34 2 0.68 2 0 2 C0 1.34 0 0.68 0 0 Z " fill="#274066" transform="translate(139,230)"/>
<path d="M0 0 C0.99 0 1.98 0 3 0 C4.6875 2 4.6875 2 6 4 C6.969375 3.79375 7.93875 3.5875 8.9375 3.375 C13.52772745 2.68834712 17.58126458 3.78760321 22 5 C22 5.33 22 5.66 22 6 C19.26843041 6.16262928 16.54657878 6.28110686 13.8125 6.375 C13.04357422 6.42527344 12.27464844 6.47554688 11.48242188 6.52734375 C5.82336548 6.67307052 5.82336548 6.67307052 3.33349609 4.63769531 C1.94921875 2.9765625 1.94921875 2.9765625 0 0 Z " fill="#395478" transform="translate(257,362)"/>
<path d="M0 0 C0.33 0.99 0.66 1.98 1 3 C-0.38980752 4.13243576 -1.78714677 5.25563119 -3.1875 6.375 C-3.96480469 7.00148438 -4.74210937 7.62796875 -5.54296875 8.2734375 C-7.96879382 9.97807134 -10.21309045 11.01987906 -13 12 C-12.67 10.68 -12.34 9.36 -12 8 C-10.68 8 -9.36 8 -8 8 C-8 7.34 -8 6.68 -8 6 C-3.61538462 3 -3.61538462 3 -1 3 C-0.67 2.01 -0.34 1.02 0 0 Z " fill="#334A6A" transform="translate(385,340)"/>
<path d="M0 0 C0 0.66 0 1.32 0 2 C-3.62197194 3.49140021 -7.27566618 4.7874262 -11 6 C-10.8125 4.125 -10.8125 4.125 -10 2 C-6.62176024 0.12320013 -3.82367701 -0.21849583 0 0 Z " fill="#234062" transform="translate(342,308)"/>
<path d="M0 0 C1.15224028 0.92961422 2.29659176 1.8690125 3.4375 2.8125 C4.07558594 3.33457031 4.71367187 3.85664063 5.37109375 4.39453125 C7 6 7 6 8 9 C5 9 5 9 2.375 6.625 C0 4 0 4 -1 2 C-0.67 1.34 -0.34 0.68 0 0 Z " fill="#203E5D" transform="translate(163,172)"/>
<path d="M0 0 C6.70459519 5.0940919 6.70459519 5.0940919 7.9375 8.875 C7.958125 9.57625 7.97875 10.2775 8 11 C7.34 11 6.68 11 6 11 C5.87625 10.071875 5.87625 10.071875 5.75 9.125 C5.37875 8.073125 5.37875 8.073125 5 7 C4.34 6.690625 3.68 6.38125 3 6.0625 C2.34 5.711875 1.68 5.36125 1 5 C0.25 2.375 0.25 2.375 0 0 Z " fill="#1B3B62" transform="translate(190,202)"/>
<path d="M0 0 C1.66666667 1.66666667 3.33333333 3.33333333 5 5 C5.9075 5.886875 6.815 6.77375 7.75 7.6875 C10 10 10 10 11 12 C8.03824877 11.38722388 6.61941217 10.74627478 4 9 C4 8.34 4 7.68 4 7 C3.34 7 2.68 7 2 7 C1.814375 6.071875 1.814375 6.071875 1.625 5.125 C1.12802644 2.80879168 1.12802644 2.80879168 -1 1 C-0.67 0.67 -0.34 0.34 0 0 Z " fill="#1C3C59" transform="translate(137,142)"/>
<path d="M0 0 C0.66 0 1.32 0 2 0 C2 0.66 2 1.32 2 2 C1.34 2 0.68 2 0 2 C-0.09152344 2.59296875 -0.18304688 3.1859375 -0.27734375 3.796875 C-1.17232113 6.52534657 -2.33906301 7.47125041 -4.5625 9.25 C-5.20316406 9.77078125 -5.84382813 10.2915625 -6.50390625 10.828125 C-6.99761719 11.21484375 -7.49132812 11.6015625 -8 12 C-7.25 9.0625 -7.25 9.0625 -6 6 C-3.875 5.125 -3.875 5.125 -2 5 C-1.855625 4.360625 -1.71125 3.72125 -1.5625 3.0625 C-1 1 -1 1 0 0 Z " fill="#2A4166" transform="translate(394,331)"/>
<path d="M0 0 C4.95 0 9.9 0 15 0 C12 3 12 3 9.84375 3.3984375 C8.68359375 3.38683594 8.68359375 3.38683594 7.5 3.375 C6.7265625 3.38273437 5.953125 3.39046875 5.15625 3.3984375 C3 3 3 3 0 0 Z " fill="#122155" transform="translate(292,314)"/>
<path d="M0 0 C1.9375 0.8125 1.9375 0.8125 4 2 C4.33 2.99 4.66 3.98 5 5 C5.99 5.33 6.98 5.66 8 6 C8 6.66 8 7.32 8 8 C6.53932801 7.54917531 5.08151968 7.08906463 3.625 6.625 C2.81289063 6.36976563 2.00078125 6.11453125 1.1640625 5.8515625 C-1 5 -1 5 -3 3 C-2.01 2.01 -1.02 1.02 0 0 Z " fill="#314767" transform="translate(332,185)"/>
<path d="M0 0 C2.475 0.495 2.475 0.495 5 1 C5 1.99 5 2.98 5 4 C5.99 4 6.98 4 8 4 C8.33 5.98 8.66 7.96 9 10 C5.73991357 6.83047153 2.77762123 3.60062011 0 0 Z " fill="#204166" transform="translate(268,268)"/>
<path d="M0 0 C1.29640378 0.59393382 2.58698839 1.20057989 3.875 1.8125 C4.59429687 2.14894531 5.31359375 2.48539063 6.0546875 2.83203125 C8 4 8 4 10 7 C6.06380262 6.43768609 3.20807554 5.38314183 0 3 C0 2.01 0 1.02 0 0 Z " fill="#213B5D" transform="translate(372,148)"/>
<path d="M0 0 C1.9375 0.125 1.9375 0.125 4 1 C5.125 3.25 5.125 3.25 6 6 C6.37125 6.928125 6.7425 7.85625 7.125 8.8125 C7.558125 9.8953125 7.558125 9.8953125 8 11 C4.73991357 7.83047153 1.77762123 4.60062011 -1 1 C-0.67 0.67 -0.34 0.34 0 0 Z " fill="#2D4667" transform="translate(167,258)"/>
<path d="M0 0 C0.33 0 0.66 0 1 0 C1 3.3 1 6.6 1 10 C3.64 10 6.28 10 9 10 C9 10.33 9 10.66 9 11 C6.03 11 3.06 11 0 11 C-1.76062164 7.67438135 -2.10784228 6.40826005 -1.125 2.6875 C-0.568125 1.3571875 -0.568125 1.3571875 0 0 Z " fill="#35557C" transform="translate(87,357)"/>
<path d="M0 0 C0.33 0 0.66 0 1 0 C1.05423638 1.91635217 1.09289963 3.83314925 1.125 5.75 C1.14820313 6.81734375 1.17140625 7.8846875 1.1953125 8.984375 C1.00487687 11.92470106 0.52670104 13.52361878 -1 16 C-1.85330338 10.16524985 -2.48351814 5.55139349 0 0 Z " fill="#20416D" transform="translate(376,240)"/>
<path d="M0 0 C3.84685385 1.24762828 6.02929405 2.3870391 8 6 C7.67 6.99 7.34 7.98 7 9 C5.83037314 7.69013727 4.66437056 6.3770374 3.5 5.0625 C2.8503125 4.33160156 2.200625 3.60070312 1.53125 2.84765625 C0 1 0 1 0 0 Z " fill="#2B4C64" transform="translate(205,303)"/>
<path d="M0 0 C0.99 0 1.98 0 3 0 C4.6875 2.5 4.6875 2.5 6 5 C5.01 5.495 5.01 5.495 4 6 C3.34 5.67 2.68 5.34 2 5 C1.01 5.99 0.02 6.98 -1 8 C-0.67 5.36 -0.34 2.72 0 0 Z " fill="#234B70" transform="translate(244,264)"/>
<path d="M0 0 C1.51953125 1.11328125 1.51953125 1.11328125 3 3 C3.07421875 5.91796875 3.07421875 5.91796875 2.6875 9.1875 C2.56761719 10.27417969 2.44773438 11.36085937 2.32421875 12.48046875 C2.21722656 13.31191406 2.11023438 14.14335937 2 15 C1.67 15 1.34 15 1 15 C1 11.7 1 8.4 1 5 C0.34 5 -0.32 5 -1 5 C-0.67 3.35 -0.34 1.7 0 0 Z " fill="#08163E" transform="translate(140,231)"/>
<path d="M0 0 C-5.53754923 2.55579195 -9.38963576 1.62077189 -15 0 C-15 -0.33 -15 -0.66 -15 -1 C-13.25181409 -1.22304441 -11.50129677 -1.4278645 -9.75 -1.625 C-8.77546875 -1.74101562 -7.8009375 -1.85703125 -6.796875 -1.9765625 C-3.86570607 -2.00112537 -2.45471036 -1.5312717 0 0 Z " fill="#385983" transform="translate(310,367)"/>
<path d="M0 0 C3.875 1.875 3.875 1.875 5 3 C5.04063832 4.66617115 5.042721 6.33388095 5 8 C2.69 6.02 0.38 4.04 -2 2 C-1.34 1.34 -0.68 0.68 0 0 Z " fill="#2B435E" transform="translate(354,200)"/>
<path d="M0 0 C3.81684226 1.55500981 6.19195732 4.03595495 9 7 C5.36891547 6.69740962 4.21859619 6.2363202 1.6875 3.5 C0 1 0 1 0 0 Z " fill="#244061" transform="translate(382,155)"/>
<path d="M0 0 C-6.75 4 -6.75 4 -9 4 C-8.67 2.68 -8.34 1.36 -8 0 C-4.94736336 -0.98120464 -3.05263664 -0.98120464 0 0 Z " fill="#2E4B68" transform="translate(372,353)"/>
<path d="M0 0 C1.5 1.0625 1.5 1.0625 3 3 C3.1875 6.6875 3.1875 6.6875 3 10 C2.01 9.67 1.02 9.34 0 9 C-0.87890625 2.84765625 -0.87890625 2.84765625 -1 1 C-0.67 0.67 -0.34 0.34 0 0 Z " fill="#26496D" transform="translate(426,226)"/>
<path d="M0 0 C3.36591866 1.44253657 5.51047079 3.33264727 8 6 C7.34 6.66 6.68 7.32 6 8 C4.9970458 6.85675161 3.99770973 5.71032809 3 4.5625 C2.443125 3.92441406 1.88625 3.28632813 1.3125 2.62890625 C0 1 0 1 0 0 Z " fill="#2D456E" transform="translate(192,288)"/>
<path d="M0 0 C2.64 0 5.28 0 8 0 C8.33 1.65 8.66 3.3 9 5 C5.54074837 3.7508258 2.85306797 2.32472205 0 0 Z " fill="#2E4A68" transform="translate(340,193)"/>
<path d="M0 0 C2.97 0.495 2.97 0.495 6 1 C4.25 2.5625 4.25 2.5625 2 4 C-0.25 3.6875 -0.25 3.6875 -2 3 C-1.34 2.01 -0.68 1.02 0 0 Z " fill="#385177" transform="translate(330,363)"/>
<path d="M0 0 C2.31 0.66 4.62 1.32 7 2 C7 2.33 7 2.66 7 3 C4.36 3.33 1.72 3.66 -1 4 C-0.67 2.68 -0.34 1.36 0 0 Z " fill="#29496E" transform="translate(335,362)"/>
<path d="" fill="#FFFFFF" transform="translate(0,0)"/>
<path d="" fill="#FFFFFF" transform="translate(0,0)"/>
<path d="" fill="#FFFFFF" transform="translate(0,0)"/>
<path d="" fill="#FFFFFF" transform="translate(0,0)"/>
<path d="" fill="#FFFFFF" transform="translate(0,0)"/>
<path d="" fill="#FFFFFF" transform="translate(0,0)"/>
<path d="" fill="#FFFFFF" transform="translate(0,0)"/>
<path d="" fill="#FFFFFF" transform="translate(0,0)"/>
<path d="" fill="#FFFFFF" transform="translate(0,0)"/>
<path d="" fill="#FFFFFF" transform="translate(0,0)"/>
<path d="" fill="#FFFFFF" transform="translate(0,0)"/>
<path d="" fill="#FFFFFF" transform="translate(0,0)"/>
<path d="" fill="#FFFFFF" transform="translate(0,0)"/>
<path d="" fill="#FFFFFF" transform="translate(0,0)"/>
<path d="" fill="#FFFFFF" transform="translate(0,0)"/>
<path d="" fill="#FFFFFF" transform="translate(0,0)"/>
<path d="" fill="#FFFFFF" transform="translate(0,0)"/>
<path d="" fill="#FFFFFF" transform="translate(0,0)"/>
<path d="" fill="#FFFFFF" transform="translate(0,0)"/>
<path d="" fill="#FFFFFF" transform="translate(0,0)"/>
<path d="" fill="#FFFFFF" transform="translate(0,0)"/>
<path d="" fill="#FFFFFF" transform="translate(0,0)"/>
<path d="" fill="#FFFFFF" transform="translate(0,0)"/>
<path d="" fill="#FFFFFF" transform="translate(0,0)"/>
<path d="" fill="#FFFFFF" transform="translate(0,0)"/>
<path d="" fill="#FFFFFF" transform="translate(0,0)"/>
<path d="" fill="#FFFFFF" transform="translate(0,0)"/>
<path d="" fill="#FFFFFF" transform="translate(0,0)"/>
<path d="" fill="#FFFFFF" transform="translate(0,0)"/>
<path d="" fill="#FFFFFF" transform="translate(0,0)"/>
<path d="" fill="#FFFFFF" transform="translate(0,0)"/>
<path d="" fill="#FFFFFF" transform="translate(0,0)"/>
<path d="" fill="#FFFFFF" transform="translate(0,0)"/>
<path d="" fill="#FFFFFF" transform="translate(0,0)"/>
<path d="" fill="#FFFFFF" transform="translate(0,0)"/>
<path d="" fill="#FFFFFF" transform="translate(0,0)"/>
<path d="" fill="#FFFFFF" transform="translate(0,0)"/>
<path d="" fill="#FFFFFF" transform="translate(0,0)"/>
<path d="" fill="#FFFFFF" transform="translate(0,0)"/>
<path d="" fill="#FFFFFF" transform="translate(0,0)"/>
<path d="" fill="#FFFFFF" transform="translate(0,0)"/>
<path d="" fill="#FFFFFF" transform="translate(0,0)"/>
<path d="" fill="#FFFFFF" transform="translate(0,0)"/>
<path d="" fill="#FFFFFF" transform="translate(0,0)"/>
<path d="" fill="#FFFFFF" transform="translate(0,0)"/>
<path d="" fill="#FFFFFF" transform="translate(0,0)"/>
<path d="" fill="#FFFFFF" transform="translate(0,0)"/>
<path d="" fill="#FFFFFF" transform="translate(0,0)"/>
<path d="" fill="#FFFFFF" transform="translate(0,0)"/>
<path d="" fill="#FFFFFF" transform="translate(0,0)"/>
<path d="" fill="#FFFFFF" transform="translate(0,0)"/>
<path d="" fill="#FFFFFF" transform="translate(0,0)"/>
<path d="" fill="#FFFFFF" transform="translate(0,0)"/>
<path d="" fill="#FFFFFF" transform="translate(0,0)"/>
<path d="" fill="#FFFFFF" transform="translate(0,0)"/>
<path d="" fill="#FFFFFF" transform="translate(0,0)"/>
<path d="" fill="#FFFFFF" transform="translate(0,0)"/>
<path d="" fill="#FFFFFF" transform="translate(0,0)"/>
<path d="" fill="#FFFFFF" transform="translate(0,0)"/>
<path d="" fill="#FFFFFF" transform="translate(0,0)"/>
<path d="" fill="#FFFFFF" transform="translate(0,0)"/>
</svg>
